<svg width="57" height="442" viewBox="0 0 57 442" fill="none" xmlns="http://www.w3.org/2000/svg">
<path d="M33.2377 118.05L33.2377 131.118L8.37633 108.828L8.37633 95.7607L33.2377 118.05Z" fill="#ffffff"/>
<path fill-rule="evenodd" clip-rule="evenodd" d="M56.2891 257.006L56.289 264.51L56.289 276.334L37.6115 289.096L34.9341 277.999L6.09325 314.744L6.09327 123.611L34.9356 160.357L37.6131 149.26L56.2906 162.022L56.2906 173.846L56.2905 177.426L49.9255 177.426L49.9255 257.006L56.2891 257.006Z" fill="white"/>
<path d="M33.2378 94.2355L33.2378 107.303L8.37645 85.0132L8.37645 71.9458L33.2378 94.2355Z" fill="white"/>
<path d="M33.2378 70.4201L33.2378 83.4876L8.37645 61.1978L8.37645 48.1304L33.2378 70.4201Z" fill="white"/>
<path d="M33.2378 46.6052L33.2378 59.6726L8.37645 37.3829L8.37645 24.3154L33.2378 46.6052Z" fill="white"/>
<path d="M33.2378 22.7897L33.2378 35.8572L8.37645 13.5674L8.37645 0.499985L33.2378 22.7897Z" fill="white"/>
<path d="M33.2374 323.949L33.2374 310.882L8.37609 333.171L8.37609 346.239L33.2374 323.949Z" fill="white"/>
<path d="M33.2374 347.764L33.2374 334.697L8.37609 356.987L8.37609 370.054L33.2374 347.764Z" fill="white"/>
<path d="M33.2374 371.58L33.2374 358.512L8.37609 380.802L8.37609 393.869L33.2374 371.58Z" fill="white"/>
<path d="M33.2374 395.395L33.2374 382.327L8.37609 404.617L8.37609 417.684L33.2374 395.395Z" fill="white"/>
<path d="M33.2374 419.21L33.2374 406.143L8.37609 428.432L8.37609 441.5L33.2374 419.21Z" fill="white"/>
</svg>
