<svg width="57" height="442" viewBox="0 0 57 442" fill="none" xmlns="http://www.w3.org/2000/svg">
<path d="M23.5383 118.05L23.5383 131.118L48.3997 108.828L48.3997 95.7607L23.5383 118.05Z" fill="white"/>
<path fill-rule="evenodd" clip-rule="evenodd" d="M0.486876 257.006L0.487009 264.51L0.487014 276.334L19.1645 289.096L21.8419 277.999L50.6827 314.744L50.6827 123.611L21.8404 160.357L19.1629 149.26L0.485391 162.022L0.485392 173.846L0.485457 177.426L6.8505 177.426L6.85051 257.006L0.486876 257.006Z" fill="white"/>
<path d="M23.5382 94.2355L23.5382 107.303L48.3996 85.0132L48.3995 71.9458L23.5382 94.2355Z" fill="white"/>
<path d="M23.5382 70.4201L23.5382 83.4876L48.3996 61.1978L48.3995 48.1304L23.5382 70.4201Z" fill="white"/>
<path d="M23.5382 46.6052L23.5382 59.6726L48.3996 37.3829L48.3995 24.3154L23.5382 46.6052Z" fill="white"/>
<path d="M23.5382 22.7897L23.5382 35.8572L48.3996 13.5674L48.3995 0.499985L23.5382 22.7897Z" fill="white"/>
<path d="M23.5386 323.949L23.5386 310.882L48.3999 333.171L48.3999 346.239L23.5386 323.949Z" fill="white"/>
<path d="M23.5386 347.764L23.5386 334.697L48.3999 356.987L48.3999 370.054L23.5386 347.764Z" fill="white"/>
<path d="M23.5386 371.58L23.5386 358.512L48.3999 380.802L48.3999 393.869L23.5386 371.58Z" fill="white"/>
<path d="M23.5386 395.395L23.5386 382.327L48.3999 404.617L48.3999 417.684L23.5386 395.395Z" fill="white"/>
<path d="M23.5386 419.21L23.5386 406.143L48.3999 428.432L48.3999 441.5L23.5386 419.21Z" fill="white"/>
</svg>
